# xmcd CD database file
#
# Track frame offsets:
#	150
#	14431
#	27379
#	41303
#	57145
#	71728
#	86341
#	99993
#	112224
#	125434
#	139169
#	154515
#	169790
#	184793
#	197469
#	210927
#	222774
#	236892
#	251665
#	265923
#
# Disc length: 3725 seconds
#
# Revision: 0
# Processed by: cddbd v1.5.2PL0 Copyright (c) Steve Scherf et al.
# Submitted via: CDex 1.70beta2
#
DISCID=140e8b14
DTITLE=Lionel Hampton - Jazz Roads CD129 - Swing - Lionel Hampton Groups Vol.5 (1940-42)
DYEAR=2006
DGENRE=Jazz
TTITLE0=Lionel Hampton And His Orchestra - Just For Laffs
TTITLE1=Lionel Hampton And His Orchestra - Martin On Every Block
TTITLE2=Lionel Hampton And His Orchestra - Pig Foot Sonata
TTITLE3=Lionel Hampton And His Orchestra - Charlie Was A Sailor
TTITLE4=Lionel Hampton And His Sextette - Lost Love
TTITLE5=Lionel Hampton And His Sextette - I Nearly Lost My Mind
TTITLE6=Lionel Hampton And His Sextette - Altitude
TTITLE7=Lionel Hampton And His Sextette - Fiddle-Dee-Dee
TTITLE8=Lionel Hampton And His Sextette - Bogo Jo
TTITLE9=Lionel Hampton And His Sextette - Open House
TTITLE10=Lionel Hampton And His Sextette - Smart Alec
TTITLE11=Lionel Hampton And His Sextette - Bouncing At The Beacon
TTITLE12=Lionel Hampton And His Sextette - Give Me Some Skin
TTITLE13=Lionel Hampton And His Sextette - Now That You're Mine
TTITLE14=Lionel Hampton And His Sextette - Chasin' With Chase
TTITLE15=Lionel Hampton And His Sextette - Three-Quarter Boogie
TTITLE16=Lionel Hampton Sextet - Royal Family
TTITLE17=Lionel Hampton Sextet - I Can't Believe That You're In Love With Me
TTITLE18=Lionel Hampton Sextet - Blues In The News
TTITLE19=Lionel Hampton Sextet - Exactly Like You
EXTD=YEAR: 2006
EXTT0=
EXTT1=
EXTT2=
EXTT3=
EXTT4=
EXTT5=
EXTT6=
EXTT7=
EXTT8=
EXTT9=
EXTT10=
EXTT11=
EXTT12=
EXTT13=
EXTT14=
EXTT15=
EXTT16=
EXTT17=
EXTT18=
EXTT19=
PLAYORDER=
